<svg width="512" height="512" viewBox="0 0 512 512" fill="none" xmlns="http://www.w3.org/2000/svg" xmlns:xlink="http://www.w3.org/1999/xlink" class=""><rect id="«r38»" width="512" height="512" x="0" y="0" rx="128" fill="#09090b" stroke="#FFFFFF" stroke-width="0" stroke-opacity="100%" paint-order="stroke"></rect><clipPath id="clip"><use xlink:href="#«r38»"></use></clipPath><defs><linearGradient id="«r39»" gradientUnits="userSpaceOnUse" gradientTransform="rotate(0)" style="transform-origin: center center;"><stop stop-color="#09090b"></stop><stop offset="1" stop-color="#f12711"></stop></linearGradient><radialGradient id="«r3a»" cx="0" cy="0" r="1" gradientUnits="userSpaceOnUse" gradientTransform="translate(256) rotate(90) scale(512)"><stop stop-color="white"></stop><stop offset="1" stop-color="white" stop-opacity="0"></stop></radialGradient></defs><svg xmlns="http://www.w3.org/2000/svg" width="352" height="352" viewBox="0 0 24 24" fill="none" stroke="currentColor" stroke-width="2" stroke-linecap="round" stroke-linejoin="round" class="lucide lucide-mouse-pointer-click-icon lucide-mouse-pointer-click" x="80" y="80" alignment-baseline="middle" style="color: rgb(228, 228, 231);"><path d="M14 4.1 12 6"></path><path d="m5.1 8-2.9-.8"></path><path d="m6 12-1.9 2"></path><path d="M7.2 2.2 8 5.1"></path><path d="M9.037 9.69a.498.498 0 0 1 .653-.653l11 4.5a.5.5 0 0 1-.074.949l-4.349 1.041a1 1 0 0 0-.74.739l-1.04 4.35a.5.5 0 0 1-.95.074z"></path></svg></svg>